<svg width="341" height="86" viewBox="0 0 341 86" fill="none" xmlns="http://www.w3.org/2000/svg">
<path fill-rule="evenodd" clip-rule="evenodd" d="M18.0877 28.6426C31.6804 23.9693 33.9941 11.7955 32.2589 0.602595C32.2589 0.198726 32.6059 -0.0897516 32.953 0.0256396C45.9673 6.37215 60.6011 20.2191 60.6011 40.9895C60.6011 56.9135 48.2231 70.9912 30.2344 70.9912C23.8155 71.2823 17.4822 69.433 12.2341 65.7349C6.98603 62.0369 3.12201 56.7009 1.25194 50.569C-0.61813 44.4371 -0.387741 37.8587 1.90674 31.8719C4.20123 25.8852 8.42913 20.8311 13.9231 17.5074C14.2702 17.2766 14.7329 17.5074 14.7329 17.9113C14.9065 20.046 15.4849 25.4117 17.8564 28.6426H18.0877Z" fill="url(#paint0_linear_5_35)"/>
<path d="M82.4608 71H95.8413V22.5176H114.348V10.1797H63.9541V22.5176H82.4608V71Z" fill="white"/>
<path d="M115.71 19.3028H129.611V7.57315H115.71V19.3028ZM116.057 71H129.264V24.4291H116.057V71Z" fill="white"/>
<path d="M134.717 71H147.923V45.021C147.923 38.7653 151.138 35.5505 156.178 35.5505C161.217 35.5505 164.171 38.7653 164.171 45.021V71H177.378V40.8505C177.378 30.1635 171.556 23.5602 161.565 23.5602C154.874 23.5602 150.964 27.1225 147.923 31.0324V24.4291H134.717V71Z" fill="white"/>
<path d="M183.29 71H207.01C226.125 71 239.332 57.7064 239.332 40.5899V40.4161C239.332 23.2995 226.125 10.1797 207.01 10.1797H183.29V71ZM196.671 58.9228V22.2569H207.01C217.958 22.2569 225.343 29.816 225.343 40.5899V40.7636C225.343 51.5375 217.958 58.9228 207.01 58.9228H196.671Z" fill="white"/>
<path d="M265.765 72.0426C280.275 72.0426 291.049 61.1819 291.049 47.8014V47.6276C291.049 34.2472 280.362 23.5602 265.938 23.5602C251.428 23.5602 240.655 34.4209 240.655 47.8014V47.9752C240.655 61.3556 251.342 72.0426 265.765 72.0426ZM265.938 60.6605C258.64 60.6605 253.688 54.6654 253.688 47.8014V47.6276C253.688 40.7636 258.206 34.9423 265.765 34.9423C273.063 34.9423 278.016 40.9374 278.016 47.8014V47.9752C278.016 54.8392 273.498 60.6605 265.938 60.6605Z" fill="white"/>
<path d="M314.513 85.0755C323.549 85.0755 330.24 83.164 334.584 78.8197C338.494 74.9099 340.492 68.8278 340.492 60.4868V24.4291H327.285V30.5111C323.723 26.6012 319.466 23.5602 312.254 23.5602C301.567 23.5602 291.575 31.3799 291.575 45.2817V45.4555C291.575 59.2704 301.393 67.177 312.254 67.177C319.292 67.177 323.549 64.3098 327.459 59.6179V61.8769C327.459 70.218 323.202 74.5623 314.166 74.5623C307.997 74.5623 303.218 72.9984 298.439 70.3049L293.921 80.2099C299.829 83.3378 306.954 85.0755 314.513 85.0755ZM316.077 56.2294C309.648 56.2294 304.782 51.8851 304.782 45.4555V45.2817C304.782 38.939 309.648 34.5078 316.077 34.5078C322.507 34.5078 327.459 38.939 327.459 45.2817V45.4555C327.459 51.7982 322.507 56.2294 316.077 56.2294Z" fill="white"/>
<defs>
<linearGradient id="paint0_linear_5_35" x1="60.6014" y1="-4.2332e-06" x2="-9.53521" y2="59.8465" gradientUnits="userSpaceOnUse">
<stop stop-color="white" stop-opacity="0"/>
<stop offset="1" stop-color="white"/>
</linearGradient>
</defs>
</svg>
